<svg xmlns="http://www.w3.org/2000/svg" viewBox="0 0 448 512">
  <path fill="#25D366" d="M380.9 97.1C339-3.2 225.9-30 135.4 30.7 89.7 61.6 60.9 110.7 56.4 166.9c-6.7 82.2 31.5 146.1 106.5 184.7l-11.2 65.4c-1.5 8.5 7.4 15 15.3 11.1l58.7-29.6c84.2 17.6 156.9-12.5 196.6-86.3 44.7-82.8 14.1-184.8-41.4-214.1zM224.6 355.5c-28.8 0-56.8-8.4-81-24.2l-5.8-3.8-34.6 17.4 7-41.1-5.3-3.7c-30.7-21.4-49.1-53.1-52.4-90.5-6.1-73.2 49.2-135.9 122.5-142 73.3-6.1 135.9 49.2 142 122.5 6.1 73.3-49.2 135.9-122.4 142-3.4.3-6.9.4-10.2.4z"/>
</svg>